<svg width="30" height="30" viewBox="0 0 30 30" fill="none" xmlns="http://www.w3.org/2000/svg">
<g clip-path="url(#clip0)">
<path d="M29.9925 29.9998V29.9985H30V18.996C30 13.6135 28.8412 9.46729 22.5487 9.46729C19.5237 9.46729 17.4937 11.1273 16.665 12.701H16.5775V9.96979H10.6112V29.9985H16.8237V20.081C16.8237 17.4698 17.3187 14.9448 20.5525 14.9448C23.7387 14.9448 23.7862 17.9248 23.7862 20.2485V29.9998H29.9925Z" fill="#B1B1B1"/>
<path d="M0.494995 9.97119H6.715V29.9999H0.494995V9.97119Z" fill="#B1B1B1"/>
<path d="M3.6025 0C1.61375 0 0 1.61375 0 3.6025C0 5.59125 1.61375 7.23875 3.6025 7.23875C5.59125 7.23875 7.205 5.59125 7.205 3.6025C7.20375 1.61375 5.59 0 3.6025 0V0Z" fill="#B1B1B1"/>
</g>
<defs>
<clipPath id="clip0">
<rect width="30" height="30" fill="white"/>
</clipPath>
</defs>
</svg>
