      <svg width="180" height="29" viewBox="0 0 180 29" fill="none" xmlns="http://www.w3.org/2000/svg">
        <g clipPath="url(#clip0)">
        <path d="M3.19534 27.238L10.4269 20.0064L13.9457 16.4876L10.4269 12.9689L3.19534 5.7373L0 9.57948L6.90815 16.4876L0 23.3958L3.19534 27.238Z" fill="#2CCD6F"/>
        <path d="M19.5996 28.3378V1.1709H36.9735L36.4495 6.85654H25.9709V11.8501H35.3241L34.8001 17.4969H25.9709V28.3378H19.5996Z" fill="white"/>
        <path d="M39.5156 28.3376V0.523926H45.4406V28.3376H39.5156Z" fill="white"/>
        <path d="M48.7832 3.5511V3.23415C48.7832 1.07805 49.8613 0 52.0174 0C54.1735 0 55.2515 1.07805 55.2515 3.23415V3.55757C55.2515 5.71367 54.1735 6.79172 52.0174 6.79172C49.8613 6.79172 48.7832 5.71151 48.7832 3.5511ZM49.0678 28.3376V8.79043H54.9799V28.3376H49.0678Z" fill="white"/>
        <path d="M57.4512 28.3379C59.2326 24.9279 61.3105 21.6813 63.6607 18.6354C61.2278 15.5934 59.157 12.2788 57.49 8.7583H63.8613C64.5374 10.725 65.5173 12.5736 66.7655 14.237H66.9272C68.0974 12.5325 69.0573 10.693 69.7862 8.7583H75.957C74.3437 12.2064 72.3937 15.4866 70.1355 18.5513C72.6105 21.6202 74.8362 24.882 76.7914 28.3055H70.1485C69.2066 26.4726 68.1569 24.6972 67.0049 22.9886H66.8431C65.79 24.7075 64.8522 26.4946 64.0359 28.3379H57.4512Z" fill="white"/>
        <path d="M79.9023 28.3376V8.7904H83.0071L83.2917 10.9249C84.0932 10.0836 85.0512 9.4069 86.1119 8.9327C87.1946 8.41525 88.379 8.14566 89.5789 8.14357C92.024 8.14357 93.7488 9.08363 94.7536 10.9638C95.6237 10.0692 96.6646 9.35856 97.8147 8.8741C98.9647 8.38963 100.2 8.14121 101.448 8.14357C105.666 8.14357 107.774 10.5627 107.774 15.401V28.3376H104.107V16.1255C104.107 14.4868 103.837 13.3441 103.298 12.6973C102.931 12.3143 102.482 12.0203 101.984 11.8376C101.487 11.6548 100.954 11.5883 100.426 11.6429C99.4864 11.6675 98.5631 11.8966 97.7208 12.3144C96.8785 12.7322 96.1374 13.3286 95.5492 14.0621C95.6009 14.5472 95.6268 15.3557 95.6268 16.4424V28.3376H91.9593V16.326C92.042 15.109 91.8197 13.8906 91.3124 12.7813C90.8532 11.9987 89.9541 11.6429 88.6152 11.6429C87.675 11.664 86.7539 11.9126 85.9308 12.3674C85.0297 12.8253 84.2293 13.4587 83.5763 14.2302V28.3376H79.9023Z" fill="white"/>
        <path d="M111.902 18.6677V18.5836C111.902 15.5651 112.64 13.0662 114.115 11.0869C115.589 9.10756 117.78 8.12653 120.686 8.14378C126.146 8.14378 128.875 11.6367 128.875 18.6224C128.875 19.2693 128.875 19.7544 128.83 20.0778H115.745C116.042 23.92 117.95 25.8411 121.469 25.8411C123.467 25.8667 125.448 25.4815 127.29 24.7091L127.614 27.6975C125.654 28.5918 123.519 29.034 121.365 28.9911C115.057 28.9868 111.902 25.5457 111.902 18.6677ZM115.732 17.3352H125.085C124.947 13.2818 123.468 11.2529 120.647 11.2486C119.945 11.1982 119.242 11.3267 118.603 11.6219C117.964 11.9171 117.41 12.3695 116.993 12.9368C116.134 14.2413 115.685 15.7734 115.706 17.3352H115.732Z" fill="white"/>
        <path d="M132.309 18.9909V18.7581C132.309 15.5627 133.055 12.9905 134.547 11.0414C136.039 9.09227 138.156 8.11772 140.898 8.11772C142.65 8.08306 144.374 8.55957 145.86 9.489V0.523926H149.566V20.2781C149.566 22.2617 149.592 24.9482 149.644 28.3376H146.545L146.3 26.6494H146.261C145.496 27.408 144.586 28.0054 143.586 28.4065C142.587 28.8076 141.516 29.0041 140.439 28.9845C139.318 29.0234 138.203 28.8039 137.18 28.3429C136.157 27.8819 135.254 27.1918 134.54 26.326C133.057 24.5537 132.313 22.1087 132.309 18.9909ZM136.144 18.6222C136.056 20.4085 136.49 22.1818 137.393 23.7257C137.809 24.3646 138.388 24.8811 139.07 25.2221C139.752 25.5632 140.513 25.7164 141.274 25.6662C142.137 25.6613 142.991 25.4796 143.782 25.1326C144.573 24.7855 145.284 24.2803 145.873 23.6481V12.8978C144.724 11.9339 143.257 11.4314 141.759 11.4877C138.011 11.4877 136.14 13.8659 136.144 18.6222Z" fill="white"/>
        <path d="M154.592 3.02076V2.74262C154.592 1.09967 155.329 0.284668 156.81 0.284668C158.292 0.284668 158.906 1.09967 158.906 2.74262V3.02076C158.906 4.63784 158.208 5.43991 156.81 5.43991C155.413 5.43991 154.592 4.63784 154.592 3.02076ZM154.915 28.3377V8.79049H158.583V28.3377H154.915Z" fill="white"/>
        <path d="M162.872 23.137C162.872 18.3289 166.552 15.9248 173.913 15.9248H174.922V15.1551C174.922 13.6544 174.586 12.6195 173.913 12.0503C173.241 11.4811 172.152 11.2137 170.647 11.2482C168.621 11.3031 166.623 11.7421 164.761 12.5419L164.198 9.52118C166.402 8.62987 168.755 8.16456 171.132 8.1499C173.689 8.1499 175.571 8.6609 176.779 9.68289C177.986 10.7049 178.59 12.4794 178.59 15.0063V24.8381C178.542 25.3176 178.634 25.8007 178.855 26.2288C179.03 26.4617 179.411 26.5716 180 26.5716V28.7062C179.378 28.9256 178.719 29.0223 178.06 28.9908C176.365 28.9908 175.401 28.1822 175.155 26.5716C174.347 27.3736 173.383 28.0018 172.323 28.4178C171.263 28.8338 170.129 29.0288 168.991 28.9908C167.383 29.0508 165.812 28.4956 164.599 27.4384C164.013 26.892 163.555 26.2234 163.256 25.4801C162.958 24.7367 162.827 23.9367 162.872 23.137ZM166.701 22.7747C166.682 23.1912 166.746 23.6074 166.891 23.9985C167.035 24.3897 167.257 24.7478 167.542 25.0516C167.878 25.3592 168.274 25.5949 168.704 25.7439C169.135 25.893 169.591 25.9524 170.045 25.9183C170.963 25.9062 171.869 25.7073 172.708 25.3336C173.546 24.96 174.3 24.4194 174.922 23.745V18.7062H174.321C173.405 18.6977 172.489 18.7452 171.578 18.8485C170.77 18.9452 169.973 19.1207 169.198 19.3724C168.462 19.5794 167.811 20.0169 167.342 20.6208C166.898 21.2495 166.674 22.0061 166.701 22.7747Z" fill="white"/>
        </g>
        <defs>
        <clipPath id="clip0">
        <rect width="180" height="28.9845" fill="white"/>
        </clipPath>
        </defs>
      </svg>